<?xml version="1.0" encoding="UTF-8" standalone="no"?>
<!DOCTYPE svg PUBLIC "-//W3C//DTD SVG 1.1//EN"
 "http://www.w3.org/Graphics/SVG/1.1/DTD/svg11.dtd">
<!-- Generated by graphviz version 8.1.0 (0)
 -->
<!-- Title: spn Pages: 1 -->
<svg width="610pt" height="152pt"
 viewBox="0.00 0.00 610.00 152.00" xmlns="http://www.w3.org/2000/svg" xmlns:xlink="http://www.w3.org/1999/xlink">
<g id="graph0" class="graph" transform="scale(1 1) rotate(0) translate(4 148)">
<title>spn</title>
<polygon fill="white" stroke="none" points="-4,4 -4,-148 606,-148 606,4 -4,4"/>
<!-- 140596707524512 -->
<g id="node1" class="node">
<title>140596707524512</title>
<polygon fill="white" stroke="black" points="144,-117 90,-117 90,-81 144,-81 144,-117"/>
<text text-anchor="middle" x="117" y="-94.72" font-family="Times,serif" font-size="12.00">A</text>
</g>
<!-- 140596707508816 -->
<g id="node7" class="node">
<title>140596707508816</title>
<ellipse fill="white" stroke="black" cx="207" cy="-99" rx="27" ry="27"/>
</g>
<!-- 140596707524512&#45;&gt;140596707508816 -->
<g id="edge1" class="edge">
<title>140596707524512&#45;&gt;140596707508816</title>
<path fill="none" stroke="black" d="M144.4,-99C152.06,-99 160.57,-99 168.76,-99"/>
<polygon fill="black" stroke="black" points="168.62,-102.5 178.62,-99 168.62,-95.5 168.62,-102.5"/>
</g>
<!-- 140596707510880 -->
<g id="node2" class="node">
<title>140596707510880</title>
<polygon fill="white" stroke="black" points="504,-90 450,-90 450,-54 504,-54 504,-90"/>
<text text-anchor="middle" x="477" y="-67.72" font-family="Times,serif" font-size="12.00">D</text>
</g>
<!-- 140596707510784 -->
<g id="node9" class="node">
<title>140596707510784</title>
<ellipse fill="white" stroke="black" cx="571" cy="-45" rx="27" ry="27"/>
<ellipse fill="none" stroke="black" cx="571" cy="-45" rx="31" ry="31"/>
<text text-anchor="start" x="561.25" y="-32.98" font-family="Times,serif" font-size="32.00">â– </text>
</g>
<!-- 140596707510880&#45;&gt;140596707510784 -->
<g id="edge4" class="edge">
<title>140596707510880&#45;&gt;140596707510784</title>
<path fill="none" stroke="black" d="M504.12,-64.34C512.36,-61.91 521.67,-59.18 530.63,-56.55"/>
<polygon fill="black" stroke="black" points="531.3,-59.71 539.91,-53.54 529.33,-53 531.3,-59.71"/>
</g>
<!-- 140596707509632 -->
<g id="node3" class="node">
<title>140596707509632</title>
<polygon fill="black" stroke="black" points="504,-144 450,-144 450,-108 504,-108 504,-144"/>
</g>
<!-- 140596707509632&#45;&gt;140596707508816 -->
<g id="edge10" class="edge">
<title>140596707509632&#45;&gt;140596707508816</title>
<path fill="none" stroke="black" d="M449.71,-123.35C401.7,-118.51 299.73,-108.24 244.83,-102.71"/>
<polygon fill="black" stroke="black" points="245.49,-99.16 235.18,-101.64 244.78,-106.12 245.49,-99.16"/>
</g>
<!-- 140596707509776 -->
<g id="node4" class="node">
<title>140596707509776</title>
<polygon fill="white" stroke="black" points="504,-36 450,-36 450,0 504,0 504,-36"/>
<text text-anchor="middle" x="477" y="-13.72" font-family="Times,serif" font-size="12.00">C</text>
</g>
<!-- 140596707509776&#45;&gt;140596707510784 -->
<g id="edge3" class="edge">
<title>140596707509776&#45;&gt;140596707510784</title>
<path fill="none" stroke="black" d="M504.12,-25.66C512.36,-28.09 521.67,-30.82 530.63,-33.45"/>
<polygon fill="black" stroke="black" points="529.33,-37 539.91,-36.46 531.3,-30.29 529.33,-37"/>
</g>
<!-- 140596707508528 -->
<g id="node5" class="node">
<title>140596707508528</title>
<polygon fill="white" stroke="black" points="324,-94 270,-94 270,-58 324,-58 324,-94"/>
<text text-anchor="middle" x="297" y="-71.72" font-family="Times,serif" font-size="12.00">B</text>
</g>
<!-- 140596707509680 -->
<g id="node8" class="node">
<title>140596707509680</title>
<ellipse fill="white" stroke="black" cx="387" cy="-71" rx="27" ry="27"/>
</g>
<!-- 140596707508528&#45;&gt;140596707509680 -->
<g id="edge2" class="edge">
<title>140596707508528&#45;&gt;140596707509680</title>
<path fill="none" stroke="black" d="M324.4,-74.5C332.06,-74.06 340.57,-73.58 348.76,-73.12"/>
<polygon fill="black" stroke="black" points="348.83,-76.56 358.62,-72.5 348.43,-69.57 348.83,-76.56"/>
</g>
<!-- 140596707509824 -->
<g id="node6" class="node">
<title>140596707509824</title>
<ellipse fill="white" stroke="black" cx="27" cy="-99" rx="27" ry="27"/>
<text text-anchor="start" x="16.88" y="-85.83" font-family="Times,serif" font-size="34.00">â—</text>
</g>
<!-- 140596707509824&#45;&gt;140596707524512 -->
<g id="edge9" class="edge">
<title>140596707509824&#45;&gt;140596707524512</title>
<path fill="none" stroke="black" d="M54.4,-99C62.06,-99 70.57,-99 78.76,-99"/>
<polygon fill="black" stroke="black" points="78.62,-102.5 88.62,-99 78.62,-95.5 78.62,-102.5"/>
</g>
<!-- 140596707508816&#45;&gt;140596707508528 -->
<g id="edge5" class="edge">
<title>140596707508816&#45;&gt;140596707508528</title>
<path fill="none" stroke="black" d="M233.45,-92.35C241.45,-90.26 250.44,-87.91 259.07,-85.65"/>
<polygon fill="black" stroke="black" points="259.9,-88.79 268.69,-82.88 258.13,-82.02 259.9,-88.79"/>
</g>
<!-- 140596707509680&#45;&gt;140596707510880 -->
<g id="edge7" class="edge">
<title>140596707509680&#45;&gt;140596707510880</title>
<path fill="none" stroke="black" d="M414.4,-71.3C422.06,-71.39 430.57,-71.48 438.76,-71.58"/>
<polygon fill="black" stroke="black" points="438.58,-75.09 448.62,-71.7 438.66,-68.09 438.58,-75.09"/>
</g>
<!-- 140596707509680&#45;&gt;140596707509632 -->
<g id="edge8" class="edge">
<title>140596707509680&#45;&gt;140596707509632</title>
<path fill="none" stroke="black" d="M410.21,-84.88C419.41,-90.63 430.31,-97.44 440.56,-103.85"/>
<polygon fill="black" stroke="black" points="438.4,-107.25 448.73,-109.58 442.11,-101.31 438.4,-107.25"/>
</g>
<!-- 140596707509680&#45;&gt;140596707509776 -->
<g id="edge6" class="edge">
<title>140596707509680&#45;&gt;140596707509776</title>
<path fill="none" stroke="black" d="M410.66,-57.35C419.69,-51.91 430.31,-45.52 440.32,-39.49"/>
<polygon fill="black" stroke="black" points="441.91,-42.02 448.67,-33.86 438.3,-36.02 441.91,-42.02"/>
</g>
</g>
</svg>
